<?xml version="1.0" encoding="utf-8"?>
<!-- Generator: Adobe Illustrator 16.0.0, SVG Export Plug-In . SVG Version: 6.00 Build 0)  -->
<!DOCTYPE svg PUBLIC "-//W3C//DTD SVG 1.1//EN" "http://www.w3.org/Graphics/SVG/1.1/DTD/svg11.dtd">
<svg version="1.1" id="Layer_1" xmlns="http://www.w3.org/2000/svg" xmlns:xlink="http://www.w3.org/1999/xlink" x="0px" y="0px"
	 width="787.28px" height="227px" viewBox="0 0 787.28 227" enable-background="new 0 0 787.28 227" xml:space="preserve">
<g id="XMLID_1_">
	<g>
		<path fill="#40826D" d="M116.63,114.984c0,0,18.372-10.071,39.895,0.194C156.525,115.179,136.977,125.443,116.63,114.984z"/>
		<path fill="#40826D" d="M102.512,115.977c15.511,0.281,29.046,8.571,36.678,20.908
			C123.679,136.604,110.144,128.315,102.512,115.977z"/>
		<path fill="#40826D" d="M138.953,93.472c-7.534,12.1-20.778,20.271-35.955,20.757C110.532,102.139,123.776,93.968,138.953,93.472z
			"/>
		<path fill="#40826D" d="M122.718,78.49c0,0-0.453,15.759-14.097,24.75C108.622,103.24,108.794,88.291,122.718,78.49z"/>
		<path fill="#40826D" d="M108.622,127.311c13.644,8.991,14.097,24.761,14.097,24.761
			C108.794,142.271,108.622,127.311,108.622,127.311z"/>
		<path fill="#40826D" d="M107.024,137.889c0,7.523-1.889,14.615-5.224,20.811c-3.465-6.293-5.44-13.514-5.44-21.21
			c0-7.534,1.889-14.626,5.225-20.822C105.049,122.961,107.024,130.193,107.024,137.889z"/>
		<path fill="#40826D" d="M101.735,71.063c3.616,6.39,5.688,13.784,5.688,21.664c0,7.815-2.04,15.155-5.624,21.523
			c-0.076,0-0.162,0-0.238,0c-0.021,0-0.032,0-0.054,0c-3.53-6.336-5.538-13.622-5.538-21.394
			C95.971,84.934,98.065,77.486,101.735,71.063z"/>
		<path fill="#40826D" d="M100.785,115.977c-7.621,12.241-21.091,20.466-36.495,20.779
			C71.911,124.515,85.371,116.291,100.785,115.977z"/>
		<path fill="#40826D" d="M64.42,93.871c15.025,0.486,28.14,8.474,35.717,20.357C85.112,113.754,71.998,105.745,64.42,93.871z"/>
		<path fill="#40826D" d="M95.053,103.489c0,0-12.769-7.804-14.054-24.783C81,78.706,94.309,87.168,95.053,103.489z"/>
		<path fill="#40826D" d="M81,151.856c1.285-16.99,14.054-24.783,14.054-24.783C94.309,143.394,81,151.856,81,151.856z"/>
		<path fill="#40826D" d="M46.535,115.049c0,0,18.36-10.071,39.895,0.194C86.429,115.243,66.87,125.519,46.535,115.049z"/>
	</g>
	<g>
		<path fill="none" stroke="#40826D" stroke-linecap="round" stroke-linejoin="round" d="M140.054,48.817
			c3.54,6.336,5.548,13.632,5.548,21.394c0,8.538-2.429,16.504-6.649,23.261c-7.534,12.1-20.778,20.271-35.955,20.757
			c-0.399,0.011-0.798,0.021-1.198,0.021c-0.076,0-0.162,0-0.238,0c-0.021,0-0.032,0-0.054,0c-0.464,0-0.917-0.011-1.371-0.021
			c-15.025-0.475-28.14-8.484-35.717-20.357c-4.372-6.843-6.897-14.96-6.897-23.66c0-7.815,2.04-15.155,5.624-21.523
			c7.534-13.438,21.912-22.516,38.416-22.516C118.12,26.171,132.541,35.314,140.054,48.817z"/>
		<path fill="none" stroke="#40826D" stroke-linecap="round" stroke-linejoin="round" d="M101.735,71.063
			c3.616,6.39,5.688,13.784,5.688,21.664c0,7.815-2.04,15.155-5.624,21.523c-0.043,0.097-0.097,0.184-0.151,0.27
			c-0.205,0.378-0.421,0.745-0.647,1.112c-0.076,0.119-0.141,0.237-0.216,0.345c-7.621,12.241-21.091,20.466-36.495,20.779
			c-0.302,0.011-0.604,0.011-0.907,0.011c-16.202,0-30.363-8.754-38.005-21.804c-3.843-6.52-6.034-14.129-6.034-22.235
			c0-24.254,19.591-43.91,43.802-44.04c0.076,0,0.162,0,0.237,0C79.834,48.688,94.168,57.701,101.735,71.063z"/>
		<path fill="none" stroke="#40826D" stroke-linecap="round" stroke-linejoin="round" d="M140.054,48.817
			c24.297,0.021,43.996,19.731,43.996,44.039c0,8.009-2.137,15.511-5.872,21.977c-7.599,13.19-21.847,22.063-38.167,22.063
			c-0.27,0-0.55,0-0.82-0.011c-15.511-0.281-29.046-8.57-36.678-20.908c-0.086-0.151-0.184-0.313-0.281-0.464
			c-0.194-0.324-0.389-0.659-0.583-0.993c-0.043-0.086-0.097-0.173-0.14-0.27c-3.53-6.336-5.538-13.622-5.538-21.394
			c0-7.923,2.094-15.371,5.764-21.793c7.588-13.287,21.879-22.246,38.275-22.246C140.021,48.817,140.043,48.817,140.054,48.817z"/>
		<path fill="none" stroke="#40826D" stroke-linecap="round" stroke-linejoin="round" d="M101.584,116.668
			c3.465,6.293,5.44,13.525,5.44,21.221c0,7.523-1.889,14.615-5.224,20.811c-7.351,13.687-21.729,23.035-38.308,23.229
			c-0.162,0-0.334,0-0.507,0c-24.319,0-44.039-19.721-44.039-44.04c0-8.398,2.353-16.245,6.433-22.927
			c7.729-12.661,21.685-21.113,37.606-21.113c0.486,0,0.961,0.011,1.436,0.021c15.025,0.486,28.14,8.474,35.717,20.357
			c0.292,0.464,0.583,0.928,0.864,1.403c0.065,0.108,0.129,0.227,0.194,0.334C101.325,116.193,101.454,116.431,101.584,116.668z"/>
		<path fill="none" stroke="#40826D" stroke-linecap="round" stroke-linejoin="round" d="M178.178,114.833
			c3.972,6.617,6.261,14.367,6.261,22.657c0,24.319-19.71,44.04-44.04,44.04c-0.086,0-0.184,0-0.27,0
			c-16.515-0.097-30.881-9.294-38.329-22.83c-3.465-6.293-5.44-13.514-5.44-21.21c0-7.534,1.889-14.626,5.225-20.822
			c0.129-0.237,0.259-0.475,0.388-0.702c0.086-0.151,0.173-0.302,0.259-0.453c0.248-0.432,0.507-0.864,0.766-1.285
			c7.535-12.089,20.779-20.26,35.955-20.757c0.475-0.011,0.96-0.021,1.446-0.021C156.439,93.45,170.471,102.021,178.178,114.833z"/>
		<path fill="none" stroke="#40826D" stroke-linecap="round" stroke-linejoin="round" d="M139.19,136.885
			c4.145,6.714,6.541,14.637,6.541,23.121c0,7.815-2.029,15.166-5.602,21.523c-7.545,13.438-21.922,22.516-38.437,22.516
			c-16.342,0-30.601-8.905-38.2-22.117c-3.713-6.455-5.839-13.935-5.839-21.923c0-8.538,2.429-16.504,6.638-23.25
			c7.621-12.241,21.081-20.465,36.495-20.779c0.129,0,0.27-0.011,0.41-0.011c0.162,0,0.334,0,0.497,0c0.097,0,0.183,0,0.28,0
			c0.184,0,0.367,0,0.54,0.011C118.023,116.258,131.559,124.548,139.19,136.885z"/>
	</g>
</g>
<g>
	<path fill="#58595B" d="M220.352,106.242c2.758,0,4.8,0.855,6.676,2.566c0.249,0.22,0.249,0.551,0.028,0.772l-2.152,2.234
		c-0.193,0.193-0.497,0.193-0.69,0c-1.02-0.91-2.372-1.407-3.724-1.407c-3.118,0-5.407,2.593-5.407,5.684
		c0,3.062,2.317,5.6,5.435,5.6c1.296,0,2.704-0.468,3.696-1.324c0.193-0.166,0.552-0.166,0.717,0.027l2.152,2.29
		c0.193,0.193,0.166,0.552-0.027,0.745c-1.876,1.821-4.249,2.676-6.704,2.676c-5.518,0-9.959-4.386-9.959-9.904
		S214.834,106.242,220.352,106.242z"/>
	<path fill="#58595B" d="M247.192,125.112l8.634-18.566c0.083-0.165,0.276-0.303,0.469-0.303h0.276c0.193,0,0.386,0.138,0.468,0.303
		l8.636,18.566c0.165,0.359-0.056,0.717-0.469,0.717h-3.062c-0.497,0-0.718-0.165-0.966-0.689l-0.993-2.18h-7.504l-0.993,2.208
		c-0.138,0.331-0.442,0.662-0.994,0.662h-3.035C247.247,125.829,247.026,125.471,247.192,125.112z M258.531,119.208l-2.097-4.552
		h-0.028l-2.068,4.552H258.531z"/>
	<path fill="#58595B" d="M287.219,106.738c0-0.275,0.248-0.496,0.524-0.496h0.689l11.007,10.593h0.028v-9.793
		c0-0.276,0.221-0.524,0.524-0.524h3.311c0.275,0,0.524,0.248,0.524,0.524v18.566c0,0.276-0.249,0.496-0.524,0.496h-0.442
		c-0.083,0-0.303-0.083-0.358-0.138l-10.897-10.953h-0.028v10.29c0,0.276-0.22,0.524-0.524,0.524h-3.283
		c-0.275,0-0.524-0.248-0.524-0.524L287.219,106.738z"/>
	<path fill="#58595B" d="M327.852,106.738c0-0.275,0.249-0.496,0.524-0.496h0.689l11.007,10.593h0.028v-9.793
		c0-0.276,0.221-0.524,0.524-0.524h3.312c0.275,0,0.524,0.248,0.524,0.524v18.566c0,0.276-0.249,0.496-0.524,0.496h-0.442
		c-0.082,0-0.303-0.083-0.358-0.138l-10.897-10.953h-0.027v10.29c0,0.276-0.221,0.524-0.524,0.524h-3.283
		c-0.275,0-0.524-0.248-0.524-0.524L327.852,106.738z"/>
	<path fill="#58595B" d="M366.031,125.112l8.635-18.566c0.083-0.165,0.276-0.303,0.469-0.303h0.275c0.193,0,0.386,0.138,0.469,0.303
		l8.635,18.566c0.166,0.359-0.055,0.717-0.469,0.717h-3.062c-0.496,0-0.717-0.165-0.965-0.689l-0.993-2.18h-7.504l-0.993,2.208
		c-0.138,0.331-0.442,0.662-0.993,0.662H366.5C366.086,125.829,365.866,125.471,366.031,125.112z M377.369,119.208l-2.096-4.552
		h-0.028l-2.069,4.552H377.369z"/>
	<path fill="#58595B" d="M406.085,107.042c0-0.276,0.22-0.524,0.523-0.524h6.428c3.256,0,5.932,2.234,5.932,5.131
		c0,2.124-1.904,3.669-3.2,4.359c1.461,0.607,3.696,1.958,3.696,4.497c0,3.09-2.731,5.324-6.014,5.324h-6.842
		c-0.303,0-0.523-0.248-0.523-0.524V107.042z M412.541,114.353c1.048,0,1.931-0.883,1.931-1.986c0-1.104-0.883-1.876-1.931-1.876
		h-2.152v3.862H412.541z M412.899,121.884c1.076,0,1.986-0.883,1.986-2.014c0-1.104-1.186-1.931-2.262-1.931h-2.234v3.944H412.899z"
		/>
	<path fill="#58595B" d="M442.278,107.042c0-0.276,0.248-0.524,0.524-0.524h3.311c0.276,0,0.524,0.248,0.524,0.524v18.262
		c0,0.276-0.249,0.524-0.524,0.524h-3.311c-0.276,0-0.524-0.248-0.524-0.524V107.042z"/>
	<path fill="#58595B" d="M469.587,123.208l1.297-2.29c0.22-0.359,0.744-0.304,0.938-0.166c0.111,0.055,2.097,1.517,3.917,1.517
		c1.104,0,1.904-0.689,1.904-1.655c0-1.159-0.965-2.041-2.841-2.787c-2.373-0.937-5.353-2.786-5.353-6.097
		c0-2.731,2.125-5.49,6.373-5.49c2.869,0,5.076,1.462,5.903,2.069c0.331,0.193,0.276,0.69,0.166,0.883l-1.407,2.124
		c-0.193,0.303-0.689,0.552-0.938,0.359c-0.248-0.138-2.262-1.656-3.945-1.656c-0.993,0-1.738,0.662-1.738,1.407
		c0,1.021,0.827,1.793,3.007,2.676c2.151,0.855,5.572,2.538,5.572,6.29c0,2.842-2.455,5.71-6.51,5.71
		c-3.587,0-5.573-1.489-6.207-2.124C469.449,123.706,469.367,123.595,469.587,123.208z"/>
	<path fill="#58595B" d="M530.523,107.042c0-0.276,0.248-0.524,0.524-0.524h3.283c0.303,0,0.524,0.248,0.524,0.524v6.952h7.89
		v-6.952c0-0.276,0.221-0.524,0.523-0.524h3.284c0.274,0,0.523,0.248,0.523,0.524v18.262c0,0.276-0.249,0.524-0.523,0.524h-3.284
		c-0.303,0-0.523-0.248-0.523-0.524v-7.255h-7.89v7.255c0,0.276-0.222,0.524-0.524,0.524h-3.283c-0.276,0-0.524-0.248-0.524-0.524
		V107.042z"/>
	<path fill="#58595B" d="M571.131,107.042c0-0.276,0.22-0.524,0.522-0.524h11.422c0.304,0,0.523,0.248,0.523,0.524v3.007
		c0,0.276-0.22,0.524-0.523,0.524h-7.642v3.421h6.29c0.276,0,0.523,0.248,0.523,0.524v3.007c0,0.303-0.247,0.524-0.523,0.524h-6.29
		v3.724h7.642c0.304,0,0.523,0.249,0.523,0.524v3.007c0,0.276-0.22,0.524-0.523,0.524h-11.422c-0.303,0-0.522-0.248-0.522-0.524
		V107.042z"/>
	<path fill="#58595B" d="M604.122,125.112l8.635-18.566c0.083-0.165,0.276-0.303,0.469-0.303h0.276c0.193,0,0.386,0.138,0.47,0.303
		l8.634,18.566c0.167,0.359-0.055,0.717-0.468,0.717h-3.062c-0.497,0-0.718-0.165-0.966-0.689l-0.993-2.18h-7.504l-0.993,2.207
		c-0.138,0.331-0.441,0.662-0.993,0.662h-3.034C604.178,125.829,603.957,125.471,604.122,125.112z M615.461,119.208l-2.097-4.552
		h-0.026l-2.07,4.552H615.461z"/>
	<path fill="#58595B" d="M644.177,107.042c0-0.276,0.221-0.524,0.524-0.524h3.283c0.274,0,0.524,0.248,0.524,0.524v14.731h6.565
		c0.304,0,0.523,0.249,0.523,0.524v3.007c0,0.276-0.22,0.524-0.523,0.524h-10.373c-0.304,0-0.524-0.248-0.524-0.524V107.042z"/>
	<path fill="#58595B" d="M677.582,107.042c0-0.276,0.247-0.524,0.523-0.524h3.312c0.275,0,0.524,0.248,0.524,0.524v18.262
		c0,0.276-0.249,0.524-0.524,0.524h-3.312c-0.276,0-0.523-0.248-0.523-0.524V107.042z"/>
	<path fill="#58595B" d="M705.969,106.738c0-0.275,0.247-0.496,0.522-0.496h0.69l11.008,10.593h0.027v-9.793
		c0-0.276,0.221-0.524,0.524-0.524h3.311c0.276,0,0.523,0.248,0.523,0.524v18.566c0,0.275-0.247,0.496-0.523,0.496h-0.441
		c-0.083,0-0.304-0.083-0.359-0.138l-10.896-10.953h-0.027v10.29c0,0.276-0.222,0.524-0.524,0.524h-3.283
		c-0.276,0-0.524-0.248-0.524-0.524L705.969,106.738z"/>
	<path fill="#58595B" d="M755.154,106.269c2.316,0,4.855,0.966,6.731,2.594c0.247,0.193,0.276,0.524,0.055,0.745l-2.178,2.317
		c-0.223,0.193-0.525,0.193-0.746,0.027c-1.048-0.965-2.262-1.324-3.614-1.324c-3.007,0-5.434,2.538-5.434,5.572
		c0,3.007,2.455,5.49,5.462,5.49c0.8,0,1.627-0.11,2.455-0.441v-1.601h-1.738c-0.304,0-0.524-0.22-0.524-0.496v-2.731
		c0-0.304,0.221-0.524,0.524-0.524h5.546c0.275,0,0.496,0.248,0.496,0.524l0.027,7.42c0,0.138-0.11,0.359-0.22,0.442
		c0,0-2.843,1.793-6.843,1.793c-5.489,0-9.904-4.359-9.904-9.876S749.665,106.269,755.154,106.269z"/>
</g>
</svg>
